Coordinates
version=1
nRows=20
nColumns=34
inDegrees=yes

Units are S.I. units (second, meters, Newtons, ...)
If the header above contains a line with 'inDegrees', this indicates whether rotational values are in degrees (yes) or radians (no).

endheader
time	pelvis_tilt	pelvis_list	pelvis_rotation	pelvis_tx	pelvis_ty	pelvis_tz	hip_flexion_r	hip_adduction_r	hip_rotation_r	knee_angle_r	ankle_angle_r	subtalar_angle_r	mtp_angle_r	hip_flexion_l	hip_adduction_l	hip_rotation_l	knee_angle_l	ankle_angle_l	subtalar_angle_l	mtp_angle_l	lumbar_extension	lumbar_bending	lumbar_rotation	arm_flex_r	arm_add_r	arm_rot_r	elbow_flex_r	pro_sup_r	arm_flex_l	arm_add_l	arm_rot_l	elbow_flex_l	pro_sup_l
      1.31000000	     -0.77516921	      5.82043714	      5.30516754	     -0.57237829	      0.90977117	     -0.21620503	      3.04160024	     -3.95409925	     -1.55883234	    -57.94512050	    -15.04963817	    -10.01365353	     27.52710962	     18.88730465	     10.35508646	     -0.74741213	    -21.01082434	      0.65296121	     -1.76886950	      9.09381606	     -4.36737750	     -6.25054085	      1.80609806	     -7.61098574	    -17.72650869	      6.16543598	     33.00319905	     90.00000000	     -6.19403159	    -16.28976913	     16.58376853	     20.07406855	     90.00000000
      1.32000000	     -0.85029494	      6.01667390	      4.87341355	     -0.56146646	      0.91132689	     -0.21639820	      5.28063360	     -4.16338761	     -0.98484340	    -60.08066587	    -14.55730714	    -11.33395421	     27.36983080	     17.93242788	     10.35455581	     -1.61503692	    -20.50195521	      1.27202569	     -1.15040593	      9.00777530	     -4.40292120	     -6.49485629	      1.67819076	     -7.57659246	    -17.62544576	      6.35934173	     32.77876693	     90.00000000	     -5.90200402	    -16.39866168	     16.32598561	     20.43875939	     90.00000000
      1.33000000	     -1.09425441	      5.84830938	      4.40274516	     -0.55077594	      0.91266210	     -0.21635267	      7.73926899	     -3.87670213	     -0.36030487	    -61.81541575	    -14.22351252	    -12.63154564	     26.86663819	     17.30959617	      9.95914342	     -2.44742420	    -20.24454855	      2.05908409	     -0.01897092	      8.55595213	     -4.18670891	     -6.36697148	      1.53494932	     -7.33727930	    -17.61994743	      7.07279149	     32.10110260	     90.00000000	     -5.75089417	    -16.57771554	     16.17153261	     20.96068654	     90.00000000
      1.34000000	     -1.02619783	      5.83004676	      4.01075383	     -0.53994755	      0.91452030	     -0.21673263	      9.74595014	     -3.80863483	      0.08082385	    -63.17514526	    -13.47593704	    -12.90035226	     26.86810205	     16.13665684	      9.86294703	     -2.68455092	    -19.63136130	      2.66084283	      0.15745890	      8.50170821	     -4.34987811	     -6.30286128	      1.33745749	     -7.39048652	    -17.60720080	      7.12930033	     32.11139193	     90.00000000	     -5.47100361	    -16.66656481	     16.07761296	     21.37720757	     90.00000000
      1.35000000	     -1.08813171	      5.83276676	      3.47243936	     -0.52916942	      0.91621976	     -0.21676496	     11.85097452	     -3.63625647	      0.76631121	    -64.18991951	    -12.45720759	    -12.69374733	     26.81375337	     15.13196488	      9.75438239	     -3.06594292	    -19.03546389	      3.20067643	      0.38799576	      8.32113260	     -4.36526670	     -6.30139036	      1.37626039	     -7.43191802	    -17.58413341	      7.25746436	     31.76379769	     90.00000000	     -5.13759855	    -16.77886349	     15.83486862	     21.81077818	     90.00000000
      1.36000000	     -1.21304901	      5.75546751	      3.37770522	     -0.51853456	      0.91752095	     -0.21697008	     13.89789508	     -3.44904468	      0.96765372	    -64.92013399	    -10.73519458	    -11.47257832	     25.03646012	     14.18684057	      9.68132140	     -2.81330260	    -18.48464224	      3.89889820	      0.62000321	      6.81647193	     -4.33725085	     -6.33321452	      0.85375913	     -7.33356901	    -17.52282349	      7.95982076	     31.33737318	     90.00000000	     -6.72400819	    -18.11491530	     15.89989474	     26.67040365	     90.00000000
      1.37000000	     -1.21327694	      5.46560759	      3.17237119	     -0.50760093	      0.91950558	     -0.21744179	     15.59912100	     -2.99797404	      1.21964642	    -64.97048195	     -9.61679021	    -11.12077746	     25.02299827	     13.02031567	      9.40969446	     -2.47992794	    -17.77406765	      4.43999069	      0.56925212	      6.65995770	     -4.41544803	     -5.90456383	      0.54941621	     -7.43892367	    -17.50634417	      7.71422089	     31.05614504	     90.00000000	     -4.87072623	    -17.11955584	     14.61236903	     23.39237390	     90.00000000
      1.38000000	     -1.24520096	      5.24721387	      3.01963233	     -0.49663993	      0.92118145	     -0.21796926	     17.24764982	     -2.67461470	      1.41913843	    -64.76827441	     -8.19294495	     -9.86765368	     24.67394379	     11.85886202	      9.24166651	     -1.98220082	    -16.99823816	      4.79090005	      0.31458297	      6.22664571	     -4.43080771	     -5.60915898	      0.25107523	     -7.64611606	    -17.46697777	      7.44805387	     30.88511755	     90.00000000	     -4.56114713	    -17.31471168	     15.09876176	     23.87075210	     90.00000000
      1.39000000	     -1.23670033	      4.99317855	      2.97320035	     -0.48583898	      0.92270176	     -0.21854088	     18.76435278	     -2.36741869	      1.39380920	    -64.29433463	     -6.32129020	     -8.60357217	     20.47174738	     10.71181432	      9.04854298	     -1.39529489	    -16.31992352	      5.39212380	      0.06946466	      4.47955844	     -4.51796517	     -5.27798791	     -0.07410922	     -7.93942474	    -17.42790627	      7.06458190	     30.88075352	     90.00000000	     -4.20982793	    -17.46336465	     15.01788466	     24.44092808	     90.00000000
      1.40000000	     -1.22239207	      4.63815223	      3.01295208	     -0.47495690	      0.92412778	     -0.21920062	     20.08944642	     -1.98111393	      1.22894435	    -63.32011536	     -5.25497551	     -8.16091403	     20.60401749	      9.62218878	      8.74066577	     -0.91596519	    -15.74006064	      5.86708771	     -0.06909174	      4.44819448	     -4.59307434	     -4.82818001	     -0.45752483	     -8.15152075	    -17.42404382	      6.81413921	     30.60238980	     90.00000000	     -3.89600630	    -17.62050672	     14.96251470	     25.10083574	     90.00000000
      1.41000000	     -1.25094433	      4.34698518	      3.08960944	     -0.46394114	      0.92531083	     -0.21977951	     21.34367640	     -1.66447693	      1.03144992	    -62.06516743	     -4.34383809	     -8.05990709	     20.63632269	      8.53086191	      8.47233156	     -0.52526887	    -15.06117853	      6.14484603	     -0.01312938	      4.44650426	     -4.57832630	     -4.46262603	     -0.86950693	     -8.41979089	    -17.40235348	      6.63627196	     30.41186352	     90.00000000	     -3.56964447	    -17.78202577	     14.89540530	     25.64012695	     90.00000000
      1.42000000	     -1.24124263	      4.07966145	      3.24983840	     -0.45315742	      0.92630046	     -0.22070965	     22.46549965	     -1.52236903	      0.62127333	    -60.53378379	     -3.28010465	     -7.68071402	     20.58973186	      7.47387768	      8.25023112	     -0.23421538	    -14.50542133	      6.53766319	     -0.09557413	      4.42668008	     -4.64320483	     -4.11272199	     -1.35357143	     -8.53805392	    -17.34595732	      6.30989778	     29.86219117	     90.00000000	     -3.23547883	    -17.93266980	     14.77461004	     26.29951740	     90.00000000
      1.43000000	     -1.34721594	      3.98358738	      3.33185435	     -0.44230427	      0.92688022	     -0.22135148	     23.61202134	     -1.49892650	      0.39342330	    -58.73153424	     -2.93968632	     -7.67944630	     20.55353156	      6.57007557	      8.15932881	     -0.34087538	    -14.00898461	      6.76038246	     -0.03334494	      4.44824694	     -4.57675862	     -3.97904123	     -1.73337635	     -8.89906805	    -17.35479346	      6.22151911	     29.98295500	     90.00000000	     -2.87277893	    -18.17359421	     14.65579023	     26.90640975	     90.00000000
      1.44000000	     -1.07660258	      3.64721642	      3.65563353	     -0.43107136	      0.92790334	     -0.22237932	     24.05541393	     -1.33702158	     -0.24812842	    -56.42603395	     -1.93310733	     -7.92415465	     20.17186310	      5.05333028	      7.81075731	      0.19581774	    -13.20013887	      7.19889205	      0.37690503	      4.42207763	     -4.86141272	     -3.51821760	     -2.32959048	     -8.91833477	    -17.21607036	      5.66876863	     28.95288713	     90.00000000	     -2.56746398	    -18.40433424	     14.59952648	     27.74633301	     90.00000000
      1.45000000	     -0.93663368	      3.40104475	      3.85448131	     -0.41991542	      0.92844188	     -0.22323838	     24.59533442	     -1.23862948	     -0.78317582	    -53.90610834	     -1.65975396	     -8.46686782	     19.57081104	      3.73754817	      7.52332921	      0.25087087	    -12.47455125	      7.58729132	      0.80933860	      4.37700384	     -5.02532330	     -3.18494362	     -2.76702873	     -9.06209647	    -17.18382097	      5.45127622	     28.38013765	     90.00000000	     -2.19651065	    -18.55312417	     14.49882834	     28.33741397	     90.00000000
      1.46000000	     -0.82226056	      3.26718231	      4.01814926	     -0.40874288	      0.92863534	     -0.22399540	     25.05418757	     -1.20940022	     -1.17791902	    -51.18389108	     -1.10141804	     -8.97118465	     19.16121715	      2.43883513	      7.32175650	      0.17910865	    -11.75036948	      7.97895792	      1.43710177	      4.27541872	     -5.16052530	     -2.98344548	     -3.16030047	     -9.24275803	    -17.10559679	      5.19925826	     27.89918330	     90.00000000	     -1.87558158	    -18.80377364	     14.52490551	     29.08938484	     90.00000000
      1.47000000	     -0.62135445	      3.10917679	      4.22008219	     -0.39758002	      0.92875740	     -0.22466611	     25.28516179	     -1.15442164	     -1.63314823	    -48.15569161	     -0.96588824	     -9.66236637	     18.68449942	      1.07102268	      7.07420386	      0.12586970	    -11.06277590	      8.47262605	      2.06613570	      4.15208482	     -5.41762461	     -2.75860332	     -3.55079282	     -9.37780998	    -17.01879942	      4.92748219	     27.37944480	     90.00000000	     -1.47310554	    -19.01079334	     14.39157288	     29.72941561	     90.00000000
      1.48000000	     -0.80841625	      3.18212445	      4.33249190	     -0.38642938	      0.92794141	     -0.22542134	     25.94632430	     -1.35915392	     -1.92909508	    -45.18529179	     -0.73748142	     -9.85057639	     18.54839891	      0.10912381	      7.11947799	      0.00834230	    -10.37235051	      8.86997590	      2.37238019	      4.16504047	     -5.21039350	     -2.79382452	     -3.77901372	     -9.77417001	    -17.00071567	      4.83331440	     27.34992383	     90.00000000	     -1.13670898	    -19.20234883	     14.22347510	     30.28267670	     90.00000000
      1.49000000	     -0.71934155	      3.03539869	      4.59018838	     -0.37505079	      0.92750500	     -0.22611350	     26.06035696	     -1.32919944	     -2.44631890	    -41.75283235	     -0.57831226	    -10.34085123	     18.24494096	     -1.19075081	      6.88287519	      0.12562868	     -9.58435200	      9.36944538	      3.09120970	      4.14689080	     -5.31131312	     -2.60542714	     -4.17910619	     -9.95683352	    -16.91272366	      4.59915696	     26.82598674	     90.00000000	     -0.78138942	    -19.38032687	     14.10861349	     30.97501939	     90.00000000
      1.50000000	      0.00795861	      2.86827479	      4.86168137	     -0.36376316	      0.92781858	     -0.22652887	     25.28142370	     -1.20954384	     -3.10905364	    -37.93018226	     -0.77189787	    -11.16984229	     17.39933940	     -2.93997882	      6.49314057	     -0.32011527	     -9.23218624	      9.98761455	      4.36110662	      3.89841111	     -6.22156998	     -2.34941608	     -4.67745418	     -9.72025378	    -16.66103740	      4.27644194	     25.84372597	     90.00000000	     -0.39013755	    -19.59802810	     13.79136623	     31.76138969	     90.00000000
